<svg xmlns="http://www.w3.org/2000/svg" xml:space="preserve" width="1500" height="1500" viewBox="0 0 1500 1500" data-version="1" data-id="lg_2QjoEZddpj6rCbZ3zW" x="0" y="0"><rect width="1500" height="1500" id="background" stroke="transparent" fill="#ffffff"></rect><g id="outer-wrapper" data-padding="20" transform="matrix(1.7921146953405018,0,0,1.7921146953405018,-594.0860215053763,-594.0860215053763)"><g id="inner-wrapper" transform="matrix(0.96415770609319,0,0,0.96415770609319,10,2.974910394265237)"><rect width="390.125" height="154.81" x="173.03329043074302" y="298.2328354264075" fill="none" rx="0" ry="0" transform="translate(315.56 399.6)"></rect><path fill="#ffc700" d="M499.91529043074297 726.8878354264076L518.8252904307429 732.5078354264076L518.9552904307429 805.9378354264077H561.155290430743L572.115290430743 818.2678354264076H519.095290430743L499.91529043074297 814.2978354264076ZM592.515290430743 744.4378354264077Q585.525290430743 741.1478354264076 582.105290430743 734.4378354264077Q582.375290430743 732.2478354264076 586.2152904307429 728.8178354264076Q590.055290430743 725.3978354264076 592.375290430743 724.8478354264075Q599.365290430743 727.9978354264076 602.655290430743 734.5778354264075Q600.3252904307429 740.4678354264076 592.515290430743 744.4378354264077M583.615290430743 752.7978354264076L600.735290430743 756.6278354264076V822.2578354264076L583.615290430743 818.4178354264077ZM619.915290430743 752.7878354264076L637.045290430743 756.6178354264076V760.3178354264076Q646.765290430743 750.8678354264076 654.9852904307429 751.4178354264077Q657.595290430743 751.5478354264076 663.4852904307429 756.2778354264076T674.7152904307429 766.7578354264076Q687.595290430743 750.7278354264076 698.555290430743 751.4178354264077Q702.935290430743 751.6878354264077 713.9652904307429 762.3078354264077T725.685290430743 776.7578354264076Q726.225290430743 780.3178354264077 726.225290430743 822.2478354264076L709.245290430743 818.4078354264077Q710.0652904307431 771.2778354264077 708.5552904307431 768.5378354264077Q706.915290430743 765.5278354264077 703.825290430743 765.3878354264077Q700.745290430743 765.2478354264077 697.115290430743 767.4478354264077Q693.485290430743 769.6378354264077 689.7852904307431 772.9878354264077Q686.085290430743 776.3478354264078 682.385290430743 780.5978354264078Q682.665290430743 788.1278354264077 682.665290430743 822.2478354264077L665.675290430743 818.4078354264077Q666.495290430743 771.2778354264078 664.985290430743 768.5378354264078Q662.935290430743 765.5278354264078 659.855290430743 765.3878354264077Q656.7652904307431 765.2478354264078 652.655290430743 767.9278354264078Q648.5452904307431 770.5978354264078 644.645290430743 774.3578354264077Q640.7452904307431 778.1278354264077 637.0452904307431 782.7878354264078V822.2478354264078L619.915290430743 818.4078354264078ZM755.145290430743 791.0078354264076L786.2452904307429 769.7678354264076Q776.385290430743 763.4678354264076 769.4652904307429 765.1178354264076Q762.545290430743 766.7578354264076 758.845290430743 773.6778354264077T755.145290430743 791.0078354264076M768.9852904307429 796.3478354264075L758.295290430743 804.1578354264076Q762.135290430743 808.8178354264076 766.925290430743 809.9178354264076Q771.7252904307429 811.0078354264076 776.9952904307429 808.6078354264075Q782.2752904307429 806.2178354264076 785.8352904307429 803.8178354264076T794.195290430743 797.4478354264076L796.935290430743 800.1878354264076Q799.535290430743 803.0678354264076 802.135290430743 805.9378354264076L804.875290430743 808.6778354264076Q792.9552904307429 817.4478354264076 784.7352904307429 820.3978354264076Q776.5152904307429 823.3378354264075 768.435290430743 820.3278354264075Q756.655290430743 815.8078354264076 746.2452904307429 804.4378354264077Q740.0752904307429 797.5878354264075 739.115290430743 788.1978354264077Q738.155290430743 778.8178354264076 741.5152904307429 770.7278354264076Q744.875290430743 762.6478354264077 751.925290430743 756.9678354264076Q758.9852904307429 751.2778354264076 767.335290430743 751.2778354264076Q772.8152904307431 751.2778354264076 783.575290430743 758.3378354264077Q794.325290430743 765.3878354264077 801.4552904307429 772.0978354264076Q801.3152904307431 772.5078354264076 790.5652904307431 780.5278354264076Q779.8052904307431 788.5378354264076 768.985290430743 796.3478354264076M816.935290430743 720.9978354264076L834.0552904307431 724.8378354264075V822.2478354264076L816.935290430743 818.4078354264077ZM860.355290430743 744.4378354264077Q853.365290430743 741.1478354264076 849.935290430743 734.4378354264077Q850.2152904307429 732.2478354264076 854.0452904307431 728.8178354264076Q857.885290430743 725.3978354264076 860.215290430743 724.8478354264075Q867.205290430743 727.9978354264076 870.485290430743 734.5778354264075Q868.165290430743 740.4678354264076 860.355290430743 744.4378354264077M851.445290430743 752.7978354264076L868.575290430743 756.6278354264076V822.2578354264076L851.445290430743 818.4178354264077ZM978.8032904307431 757.0338354264077C980.941290430743 759.9898354264076 985.233290430743 756.8668354264076 983.095290430743 753.9108354264076L968.3492904307432 733.6708354264076C966.5122904307432 731.1328354264076 962.2192904307431 734.2548354264077 964.057290430743 736.7938354264077ZM982.4272904307431 750.7378354264076C984.7652904307431 753.9608354264076 989.057290430743 750.8218354264077 986.7192904307431 747.5978354264076L975.7642904307431 732.5678354264077C973.4262904307432 729.3458354264077 969.134290430743 732.4848354264077 971.472290430743 735.7078354264077ZM971.6892904307431 758.5708354264077C974.027290430743 761.7938354264077 978.319290430743 758.6538354264077 975.981290430743 755.4308354264076L965.0422904307432 740.4008354264076C962.7042904307432 737.1948354264077 958.3962904307432 740.3168354264077 960.7342904307432 743.5408354264077ZM1041.9452904307432 692.5878354264077L985.049290430743 734.0548354264076Q984.464290430743 734.4888354264076 984.047290430743 734.9398354264076L981.5922904307431 731.5668354264076C980.222290430743 729.6798354264076 976.999290430743 732.0168354264076 978.385290430743 733.9048354264077L986.652290430743 745.3108354264077C988.038290430743 747.2148354264077 991.2622904307432 744.8598354264077 989.875290430743 742.9728354264076L987.0032904307432 739.0148354264077Q987.5532904307431 738.7648354264077 988.1552904307432 738.3468354264076L1045.069290430743 696.8968354264076C1048.292290430743 694.5598354264076 1045.1692904307433 690.2508354264075 1041.946290430743 692.6058354264076 "></path><path fill="#ffc700" d="M1016.645290430743 787.3278354264075C1017.146290430743 784.7398354264076 1017.347290430743 780.2478354264076 1015.5932904307431 776.7898354264075L1015.2932904307431 776.4228354264076L1014.9592904307431 776.1388354264076C1010.7332904307432 771.8298354264075 998.6932904307431 768.6908354264076 986.8192904307431 768.6908354264076C980.9242904307431 768.6908354264076 974.9622904307431 769.4588354264076 969.9522904307431 770.7778354264076V759.4058354264075C969.9522904307431 759.0878354264075 970.0692904307431 758.8548354264076 969.7352904307431 758.6878354264076C969.6852904307432 758.5708354264075 969.8022904307431 758.4538354264075 969.7182904307431 758.3538354264076C966.7462904307431 754.2618354264075 963.873290430743 750.1708354264076 960.8842904307431 746.1118354264075C959.4142904307431 744.0578354264076 956.2242904307432 746.2788354264076 957.7112904307431 748.3338354264075C957.7112904307431 748.3338354264075 963.8232904307431 757.1008354264075 966.7792904307431 760.4408354264075H966.6122904307431V772.0808354264075C963.272290430743 773.1828354264075 961.3522904307431 774.5188354264075 959.6982904307431 776.0388354264076L959.3812904307431 776.4058354264075C957.4112904307431 779.0448354264075 957.5942904307431 784.0548354264075 958.1112904307431 787.1608354264075C954.3712904307431 789.4488354264075 951.5822904307431 793.6908354264075 951.5822904307431 797.9158354264075V845.7278354264075C951.5822904307431 852.2738354264075 958.2292904307432 854.2448354264075 960.3322904307431 854.9128354264076C966.3782904307432 856.7668354264075 975.2292904307432 857.6678354264075 987.1362904307431 857.6678354264075C1000.9812904307432 857.6678354264075 1008.4462904307431 856.0818354264075 1012.4362904307432 855.2138354264075C1012.8712904307431 855.1298354264075 1013.7732904307431 855.0458354264075 1014.124290430743 854.9628354264075C1019.451290430743 853.8778354264075 1023.3922904307431 850.2528354264075 1023.3922904307431 845.7278354264075V797.9158354264075C1023.3922904307431 793.6908354264075 1019.952290430743 789.6488354264075 1016.6452904307432 787.3278354264075M1016.7122904307432 845.7278354264074C1016.7122904307432 848.6168354264075 1013.4722904307432 849.5518354264075 1012.4032904307433 849.7688354264075C1012.0362904307433 849.8358354264075 1011.7352904307431 849.9358354264075 1011.2682904307433 850.0188354264075C1007.4772904307431 850.8548354264075 1000.4802904307431 852.3578354264075 987.2032904307431 852.3578354264075C975.830290430743 852.3578354264075 968.0822904307431 851.5228354264075 962.5532904307431 849.8188354264075C958.3792904307431 848.5338354264074 958.2622904307431 847.0968354264076 958.2622904307431 845.7278354264074V797.9158354264075C958.2622904307431 795.5108354264075 959.6652904307431 792.3048354264074 962.7712904307431 791.0858354264075L964.6752904307431 790.2508354264075L964.057290430743 788.0288354264076C963.3052904307431 784.7228354264075 963.0552904307431 780.8488354264075 963.5892904307431 779.7458354264074C964.341290430743 779.0948354264075 964.942290430743 778.4598354264075 966.6122904307431 777.8418354264074V780.6478354264075C966.6122904307431 781.4998354264075 967.2802904307431 782.0178354264075 968.0152904307431 782.2008354264075C970.2352904307431 783.7708354264075 977.6172904307431 785.4078354264075 987.5712904307431 785.4078354264075C999.5782904307431 785.4078354264075 1007.8282904307432 783.0358354264074 1007.8282904307432 781.2488354264075C1007.8282904307432 779.4788354264075 999.2282904307431 777.1078354264075 987.2372904307431 777.1078354264075C979.7882904307431 777.1078354264075 973.292290430743 778.0258354264074 969.9522904307431 779.1448354264074V776.3228354264074C974.9622904307431 774.9698354264074 980.3722904307431 774.0178354264074 986.7862904307431 774.0178354264074C997.6742904307431 774.0178354264074 1007.4942904307431 776.8578354264074 1010.6162904307432 779.5628354264074C1011.0512904307432 780.6648354264074 1011.2512904307432 782.0338354264074 1011.1842904307432 783.3698354264075A6.7 6.7 0 0 1 1008.9802904307433 786.0418354264075C1006.3412904307431 787.9458354264075 1002.2502904307432 788.3298354264075 999.1442904307431 788.7478354264075C993.8662904307431 789.4478354264074 988.4562904307431 789.5828354264074 983.1452904307431 789.3978354264075C980.5732904307431 789.2978354264075 980.5902904307432 793.2898354264075 983.1452904307431 793.3728354264075C991.6622904307432 793.7068354264075 1002.1002904307431 793.8738354264075 1009.9822904307432 789.9998354264076V790.0328354264075L1011.7692904307432 791.0188354264076C1014.5582904307432 792.3548354264076 1016.7122904307432 795.5278354264076 1016.7122904307432 797.9158354264075Z "></path><path fill="#ffc700" d="M1006.625290430743 815.1668354264076C1003.7362904307431 815.5008354264075 995.386290430743 816.4028354264076 988.088290430743 816.5028354264076C980.774290430743 816.6198354264077 972.824290430743 815.8848354264076 969.651290430743 815.1668354264076C966.478290430743 814.4988354264076 963.2722904307429 818.1728354264076 963.2722904307429 821.8298354264076V839.0978354264076C963.2722904307429 842.7718354264076 965.5432904307429 844.3248354264076 969.618290430743 845.7448354264077C973.693290430743 847.1468354264076 979.438290430743 848.3998354264077 988.1722904307429 848.3998354264077C996.9222904307429 848.3998354264077 1003.569290430743 846.4958354264077 1006.692290430743 845.7278354264076C1009.8152904307431 844.9928354264075 1013.3722904307429 842.7718354264075 1013.3722904307429 839.0978354264075V821.8138354264076C1013.3722904307429 818.1398354264077 1009.4982904307428 814.8498354264076 1006.625290430743 815.1838354264075 "></path></g><rect width="558" height="166" x="471" y="667" id="space-saver" fill="transparent" stroke="transparent"></rect></g></svg>