<svg xmlns="http://www.w3.org/2000/svg" xml:space="preserve" width="1500" height="166" viewBox="0 0 1500 166" data-version="1" data-id="lg_2QjoEZddpj6rCbZ3zW"><g id="outer-wrapper" data-padding="20" transform="matrix(1,0,0,1,0,0)"><g id="inner-wrapper" transform="matrix(0.96415770609319,0,0,0.96415770609319,10,2.974910394265237)"><rect width="390.125" height="154.81" x="173.03329043074302" y="-393.5627036070497" fill="none" rx="0" ry="0" transform="translate(315.56 399.6)"></rect><path fill="#ffc700" d="M499.91529043074297 35.09229639295029L518.8252904307429 40.71229639295029L518.9552904307429 114.1422963929503H561.155290430743L572.115290430743 126.47229639295028H519.095290430743L499.91529043074297 122.50229639295026ZM592.515290430743 52.6422963929503Q585.525290430743 49.35229639295028 582.105290430743 42.6422963929503Q582.375290430743 40.4522963929503 586.2152904307429 37.022296392950295Q590.055290430743 33.60229639295028 592.375290430743 33.05229639295027Q599.365290430743 36.202296392950245 602.655290430743 42.782296392950286Q600.3252904307429 48.67229639295027 592.515290430743 52.6422963929503M583.615290430743 61.00229639295031L600.735290430743 64.8322963929503V130.4622963929503L583.615290430743 126.62229639295032ZM619.915290430743 60.99229639295032L637.045290430743 64.8222963929503V68.5222963929503Q646.765290430743 59.07229639295031 654.9852904307429 59.62229639295032Q657.595290430743 59.75229639295031 663.4852904307429 64.48229639295033T674.7152904307429 74.96229639295035Q687.595290430743 58.93229639295032 698.555290430743 59.622296392950375Q702.935290430743 59.89229639295036 713.9652904307429 70.51229639295036T725.685290430743 84.96229639295035Q726.225290430743 88.52229639295035 726.225290430743 130.45229639295036L709.245290430743 126.61229639295038Q710.0652904307431 79.48229639295039 708.5552904307431 76.74229639295038Q706.915290430743 73.73229639295039 703.825290430743 73.5922963929504Q700.745290430743 73.45229639295042 697.115290430743 75.6522963929504Q693.485290430743 77.8422963929504 689.7852904307431 81.19229639295042Q686.085290430743 84.55229639295044 682.385290430743 88.80229639295044Q682.665290430743 96.33229639295041 682.665290430743 130.45229639295042L665.675290430743 126.61229639295044Q666.495290430743 79.48229639295045 664.985290430743 76.74229639295044Q662.935290430743 73.73229639295045 659.855290430743 73.59229639295046Q656.7652904307431 73.45229639295047 652.655290430743 76.13229639295048Q648.5452904307431 78.8022963929505 644.645290430743 82.56229639295049Q640.7452904307431 86.33229639295047 637.0452904307431 90.9922963929505V130.45229639295047L619.915290430743 126.6122963929505ZM755.145290430743 99.2122963929503L786.2452904307429 77.97229639295028Q776.385290430743 71.67229639295027 769.4652904307429 73.3222963929503Q762.545290430743 74.9622963929503 758.845290430743 81.88229639295031T755.145290430743 99.2122963929503M768.9852904307429 104.55229639295027L758.295290430743 112.36229639295027Q762.135290430743 117.0222963929503 766.925290430743 118.12229639295026Q771.7252904307429 119.21229639295024 776.9952904307429 116.81229639295026Q782.2752904307429 114.42229639295027 785.8352904307429 112.02229639295024T794.195290430743 105.65229639295023L796.935290430743 108.39229639295024Q799.535290430743 111.27229639295024 802.135290430743 114.14229639295024L804.875290430743 116.88229639295025Q792.9552904307429 125.65229639295023 784.7352904307429 128.60229639295028Q776.5152904307429 131.54229639295028 768.435290430743 128.5322963929503Q756.655290430743 124.0122963929503 746.2452904307429 112.6422963929503Q740.0752904307429 105.79229639295028 739.115290430743 96.40229639295029Q738.155290430743 87.0222963929503 741.5152904307429 78.93229639295032Q744.875290430743 70.85229639295034 751.925290430743 65.17229639295033Q758.9852904307429 59.48229639295033 767.335290430743 59.48229639295033Q772.8152904307431 59.48229639295033 783.575290430743 66.54229639295033Q794.325290430743 73.59229639295035 801.4552904307429 80.30229639295032Q801.3152904307431 80.71229639295035 790.5652904307431 88.73229639295033Q779.8052904307431 96.74229639295032 768.985290430743 104.55229639295032M816.935290430743 29.202296392950302L834.0552904307431 33.04229639295028V130.4522963929503L816.935290430743 126.61229639295033ZM860.355290430743 52.6422963929503Q853.365290430743 49.35229639295028 849.935290430743 42.6422963929503Q850.2152904307429 40.4522963929503 854.0452904307431 37.022296392950295Q857.885290430743 33.60229639295028 860.215290430743 33.05229639295027Q867.205290430743 36.202296392950245 870.485290430743 42.782296392950286Q868.165290430743 48.67229639295027 860.355290430743 52.6422963929503M851.445290430743 61.00229639295031L868.575290430743 64.8322963929503V130.4622963929503L851.445290430743 126.62229639295032ZM978.8032904307431 65.2382963929503C980.941290430743 68.19429639295032 985.233290430743 65.07129639295033 983.095290430743 62.11529639295031L968.3492904307432 41.875296392950304C966.5122904307432 39.33729639295029 962.2192904307431 42.45929639295031 964.057290430743 44.998296392950294ZM982.4272904307431 58.94229639295031C984.7652904307431 62.165296392950324 989.057290430743 59.026296392950314 986.7192904307431 55.802296392950325L975.7642904307431 40.77229639295035C973.4262904307432 37.55029639295037 969.134290430743 40.689296392950325 971.472290430743 43.91229639295034ZM971.6892904307431 66.77529639295034C974.027290430743 69.99829639295035 978.319290430743 66.85829639295036 975.981290430743 63.63529639295035L965.0422904307432 48.60529639295038C962.7042904307432 45.39929639295036 958.3962904307432 48.521296392950376 960.7342904307432 51.745296392950365ZM1041.9452904307432 0.7922963929503339L985.049290430743 42.25929639295032Q984.464290430743 42.693296392950344 984.047290430743 43.14429639295031L981.5922904307431 39.77129639295032C980.222290430743 37.88429639295032 976.999290430743 40.22129639295031 978.385290430743 42.10929639295034L986.652290430743 53.51529639295035C988.038290430743 55.41929639295034 991.2622904307432 53.064296392950325 989.875290430743 51.177296392950325L987.0032904307432 47.2192963929503Q987.5532904307431 46.9692963929503 988.1552904307432 46.55129639295029L1045.069290430743 5.101296392950303C1048.292290430743 2.764296392950314 1045.1692904307433 -1.544703607049712 1041.946290430743 0.8102963929503062 "></path><path fill="#ffc700" d="M1016.645290430743 95.53229639295029C1017.146290430743 92.94429639295026 1017.347290430743 88.4522963929503 1015.5932904307431 84.99429639295028L1015.2932904307431 84.62729639295026L1014.9592904307431 84.34329639295026C1010.7332904307432 80.03429639295024 998.6932904307431 76.89529639295029 986.8192904307431 76.89529639295029C980.9242904307431 76.89529639295029 974.9622904307431 77.66329639295026 969.9522904307431 78.98229639295027V67.61029639295026C969.9522904307431 67.29229639295028 970.0692904307431 67.05929639295027 969.7352904307431 66.89229639295024C969.6852904307432 66.77529639295022 969.8022904307431 66.65829639295026 969.7182904307431 66.55829639295024C966.7462904307431 62.466296392950255 963.873290430743 58.37529639295025 960.8842904307431 54.31629639295022C959.4142904307431 52.26229639295025 956.2242904307432 54.483296392950194 957.7112904307431 56.5382963929502C957.7112904307431 56.5382963929502 963.8232904307431 65.3052963929502 966.7792904307431 68.64529639295017H966.6122904307431V80.28529639295016C963.272290430743 81.38729639295013 961.3522904307431 82.72329639295015 959.6982904307431 84.24329639295019L959.3812904307431 84.6102963929502C957.4112904307431 87.24929639295021 957.5942904307431 92.2592963929502 958.1112904307431 95.3652963929502C954.3712904307431 97.65329639295021 951.5822904307431 101.89529639295017 951.5822904307431 106.1202963929502V153.9322963929502C951.5822904307431 160.4782963929502 958.2292904307432 162.4492963929502 960.3322904307431 163.1172963929502C966.3782904307432 164.9712963929502 975.2292904307432 165.8722963929502 987.1362904307431 165.8722963929502C1000.9812904307432 165.8722963929502 1008.4462904307431 164.2862963929502 1012.4362904307432 163.4182963929502C1012.8712904307431 163.3342963929502 1013.7732904307431 163.2502963929502 1014.124290430743 163.16729639295022C1019.451290430743 162.08229639295024 1023.3922904307431 158.45729639295024 1023.3922904307431 153.9322963929502V106.1202963929502C1023.3922904307431 101.89529639295017 1019.952290430743 97.8532963929502 1016.6452904307432 95.53229639295017M1016.7122904307432 153.93229639295015C1016.7122904307432 156.82129639295016 1013.4722904307432 157.75629639295016 1012.4032904307433 157.97329639295015C1012.0362904307433 158.04029639295015 1011.7352904307431 158.14029639295012 1011.2682904307433 158.22329639295015C1007.4772904307431 159.05929639295016 1000.4802904307431 160.56229639295015 987.2032904307431 160.56229639295015C975.830290430743 160.56229639295015 968.0822904307431 159.72729639295017 962.5532904307431 158.02329639295016C958.3792904307431 156.73829639295013 958.2622904307431 155.30129639295018 958.2622904307431 153.93229639295015V106.12029639295014C958.2622904307431 103.71529639295017 959.6652904307431 100.50929639295015 962.7712904307431 99.29029639295015L964.6752904307431 98.45529639295017L964.057290430743 96.2332963929502C963.3052904307431 92.92729639295021 963.0552904307431 89.05329639295019 963.5892904307431 87.95029639295018C964.341290430743 87.29929639295017 964.942290430743 86.66429639295018 966.6122904307431 86.04629639295018V88.85229639295017C966.6122904307431 89.70429639295014 967.2802904307431 90.22229639295017 968.0152904307431 90.40529639295016C970.2352904307431 91.97529639295016 977.6172904307431 93.61229639295016 987.5712904307431 93.61229639295016C999.5782904307431 93.61229639295016 1007.8282904307432 91.24029639295014 1007.8282904307432 89.45329639295016C1007.8282904307432 87.68329639295018 999.2282904307431 85.31229639295015 987.2372904307431 85.31229639295015C979.7882904307431 85.31229639295015 973.292290430743 86.23029639295015 969.9522904307431 87.34929639295012V84.52729639295012C974.9622904307431 83.17429639295011 980.3722904307431 82.22229639295011 986.7862904307431 82.22229639295011C997.6742904307431 82.22229639295011 1007.4942904307431 85.06229639295009 1010.6162904307432 87.76729639295013C1011.0512904307432 88.8692963929501 1011.2512904307432 90.23829639295013 1011.1842904307432 91.57429639295015A6.7 6.7 0 0 1 1008.9802904307433 94.24629639295017C1006.3412904307431 96.15029639295017 1002.2502904307432 96.53429639295018 999.1442904307431 96.95229639295019C993.8662904307431 97.65229639295018 988.4562904307431 97.78729639295017 983.1452904307431 97.60229639295017C980.5732904307431 97.50229639295014 980.5902904307432 101.49429639295016 983.1452904307431 101.57729639295019C991.6622904307432 101.91129639295019 1002.1002904307431 102.07829639295016 1009.9822904307432 98.2042963929502V98.23729639295021L1011.7692904307432 99.2232963929502C1014.5582904307432 100.55929639295022 1016.7122904307432 103.73229639295022 1016.7122904307432 106.1202963929502Z "></path><path fill="#ffc700" d="M1006.625290430743 123.37129639295028C1003.7362904307431 123.70529639295029 995.386290430743 124.60729639295027 988.088290430743 124.7072963929503C980.774290430743 124.82429639295032 972.824290430743 124.0892963929503 969.651290430743 123.37129639295028C966.478290430743 122.70329639295028 963.2722904307429 126.37729639295026 963.2722904307429 130.0342963929503V147.30229639295032C963.2722904307429 150.9762963929503 965.5432904307429 152.5292963929503 969.618290430743 153.94929639295032C973.693290430743 155.3512963929503 979.438290430743 156.6042963929503 988.1722904307429 156.6042963929503C996.9222904307429 156.6042963929503 1003.569290430743 154.7002963929503 1006.692290430743 153.93229639295026C1009.8152904307431 153.19729639295025 1013.3722904307429 150.97629639295025 1013.3722904307429 147.30229639295027V130.01829639295028C1013.3722904307429 126.3442963929503 1009.4982904307428 123.05429639295028 1006.625290430743 123.38829639295028 "></path></g><rect width="558" height="166" x="471" y="0" id="space-saver" fill="transparent" stroke="transparent"></rect></g></svg>